<svg width="68" height="68" viewBox="0 0 68 68" fill="none" xmlns="http://www.w3.org/2000/svg">
<g filter="url(#filter0_d_87_524)">
<path d="M54.6832 47.3553C55.9524 48.4203 57.8588 48.2621 58.7918 46.8929C62.4469 41.5291 64.2794 35.0977 63.9655 28.5607C63.6033 21.0203 60.4116 13.8937 55.0273 8.60249C49.6429 3.31129 42.4617 0.244528 34.9162 0.0139922C27.3706 -0.216544 20.0156 2.4061 14.3182 7.35871C8.62089 12.3113 5.00015 19.2298 4.17831 26.734C3.35647 34.2382 5.39395 41.7763 9.8843 47.8447C14.3746 53.913 20.9877 58.0654 28.4043 59.4735C34.834 60.6942 41.4579 59.7745 47.2781 56.9016C48.7638 56.1682 49.1858 54.3024 48.3078 52.8973V52.8973C47.4298 51.4922 45.5848 51.0841 44.0812 51.7801C39.558 53.8738 34.4689 54.5177 29.5234 53.5788C23.5902 52.4523 18.2997 49.1304 14.7074 44.2757C11.1152 39.4211 9.48518 33.3905 10.1426 27.3872C10.8001 21.3839 13.6967 15.8491 18.2546 11.887C22.8124 7.92488 28.6965 5.82677 34.7329 6.01119C40.7693 6.19562 46.5143 8.64903 50.8218 12.882C55.1293 17.1149 57.6826 22.8162 57.9724 28.8485C58.2139 33.8766 56.868 38.8265 54.1651 43.0143C53.2666 44.4064 53.414 46.2903 54.6832 47.3553V47.3553Z" fill="#D9D9D9"/>
</g>
<g filter="url(#filter1_d_87_524)">
<rect x="21" y="19" width="26" height="5" rx="2.5" fill="#D9D9D9"/>
</g>
<g filter="url(#filter2_d_87_524)">
<rect x="21" y="27.5" width="26" height="5" rx="2.5" fill="#D9D9D9"/>
</g>
<g filter="url(#filter3_d_87_524)">
<rect x="21" y="36" width="26" height="5" rx="2.5" fill="#D9D9D9"/>
</g>
<defs>
<filter id="filter0_d_87_524" x="0" y="0" width="68" height="68.0001" filterUnits="userSpaceOnUse" color-interpolation-filters="sRGB">
<feFlood flood-opacity="0" result="BackgroundImageFix"/>
<feColorMatrix in="SourceAlpha" type="matrix" values="0 0 0 0 0 0 0 0 0 0 0 0 0 0 0 0 0 0 127 0" result="hardAlpha"/>
<feOffset dy="4"/>
<feGaussianBlur stdDeviation="2"/>
<feComposite in2="hardAlpha" operator="out"/>
<feColorMatrix type="matrix" values="0 0 0 0 0 0 0 0 0 0 0 0 0 0 0 0 0 0 0.25 0"/>
<feBlend mode="normal" in2="BackgroundImageFix" result="effect1_dropShadow_87_524"/>
<feBlend mode="normal" in="SourceGraphic" in2="effect1_dropShadow_87_524" result="shape"/>
</filter>
<filter id="filter1_d_87_524" x="17" y="19" width="34" height="13" filterUnits="userSpaceOnUse" color-interpolation-filters="sRGB">
<feFlood flood-opacity="0" result="BackgroundImageFix"/>
<feColorMatrix in="SourceAlpha" type="matrix" values="0 0 0 0 0 0 0 0 0 0 0 0 0 0 0 0 0 0 127 0" result="hardAlpha"/>
<feOffset dy="4"/>
<feGaussianBlur stdDeviation="2"/>
<feComposite in2="hardAlpha" operator="out"/>
<feColorMatrix type="matrix" values="0 0 0 0 0 0 0 0 0 0 0 0 0 0 0 0 0 0 0.25 0"/>
<feBlend mode="normal" in2="BackgroundImageFix" result="effect1_dropShadow_87_524"/>
<feBlend mode="normal" in="SourceGraphic" in2="effect1_dropShadow_87_524" result="shape"/>
</filter>
<filter id="filter2_d_87_524" x="17" y="27.5" width="34" height="13" filterUnits="userSpaceOnUse" color-interpolation-filters="sRGB">
<feFlood flood-opacity="0" result="BackgroundImageFix"/>
<feColorMatrix in="SourceAlpha" type="matrix" values="0 0 0 0 0 0 0 0 0 0 0 0 0 0 0 0 0 0 127 0" result="hardAlpha"/>
<feOffset dy="4"/>
<feGaussianBlur stdDeviation="2"/>
<feComposite in2="hardAlpha" operator="out"/>
<feColorMatrix type="matrix" values="0 0 0 0 0 0 0 0 0 0 0 0 0 0 0 0 0 0 0.25 0"/>
<feBlend mode="normal" in2="BackgroundImageFix" result="effect1_dropShadow_87_524"/>
<feBlend mode="normal" in="SourceGraphic" in2="effect1_dropShadow_87_524" result="shape"/>
</filter>
<filter id="filter3_d_87_524" x="17" y="36" width="34" height="13" filterUnits="userSpaceOnUse" color-interpolation-filters="sRGB">
<feFlood flood-opacity="0" result="BackgroundImageFix"/>
<feColorMatrix in="SourceAlpha" type="matrix" values="0 0 0 0 0 0 0 0 0 0 0 0 0 0 0 0 0 0 127 0" result="hardAlpha"/>
<feOffset dy="4"/>
<feGaussianBlur stdDeviation="2"/>
<feComposite in2="hardAlpha" operator="out"/>
<feColorMatrix type="matrix" values="0 0 0 0 0 0 0 0 0 0 0 0 0 0 0 0 0 0 0.25 0"/>
<feBlend mode="normal" in2="BackgroundImageFix" result="effect1_dropShadow_87_524"/>
<feBlend mode="normal" in="SourceGraphic" in2="effect1_dropShadow_87_524" result="shape"/>
</filter>
</defs>
</svg>
